<?xml version="1.0" standalone="no"?><!DOCTYPE svg PUBLIC "-//W3C//DTD SVG 1.1//EN" "http://www.w3.org/Graphics/SVG/1.1/DTD/svg11.dtd"><svg t="1547000489322" class="icon" style="" viewBox="0 0 1121 1024" version="1.1" xmlns="http://www.w3.org/2000/svg" p-id="5734" xmlns:xlink="http://www.w3.org/1999/xlink" width="218.9453125" height="200"><defs><style type="text/css"></style></defs><path d="M0 931.352381c0 53.638095 43.885714 92.647619 92.647619 92.647619H1024c53.638095 0 92.647619-43.885714 92.647619-92.647619v-248.685714c0-53.638095-43.885714-92.647619-92.647619-92.647619h-390.095238V433.980952c0-34.133333-34.133333-58.514286-68.266667-58.514285S487.619048 399.847619 487.619048 433.980952v156.038096H92.647619c-53.638095 0-92.647619 43.885714-92.647619 92.647619v248.685714z m117.028571-131.657143c0-34.133333 24.380952-58.514286 58.514286-58.514286s58.514286 24.380952 58.514286 58.514286-24.380952 58.514286-58.514286 58.514286-58.514286-24.380952-58.514286-58.514286z m209.676191 0c0-34.133333 24.380952-58.514286 58.514286-58.514286s58.514286 24.380952 58.514285 58.514286-24.380952 58.514286-58.514285 58.514286c-29.257143 0-58.514286-24.380952-58.514286-58.514286zM565.638095 185.295238c-136.533333 0-243.809524 112.152381-243.809524 243.809524 0 34.133333 24.380952 58.514286 58.514286 58.514286S438.857143 463.238095 438.857143 429.104762c0-73.142857 58.514286-126.780952 126.780952-126.780952s126.780952 58.514286 126.780953 126.780952c0 34.133333 24.380952 58.514286 58.514285 58.514286s58.514286-24.380952 58.514286-58.514286c0-131.657143-107.27619-243.809524-243.809524-243.809524z m0-185.295238c-238.933333 0-433.980952 195.047619-433.980952 433.980952 0 34.133333 24.380952 58.514286 58.514286 58.514286s58.514286-24.380952 58.514285-58.514286c0-175.542857 141.409524-316.952381 316.952381-316.952381s316.952381 141.409524 316.952381 316.952381c0 34.133333 24.380952 58.514286 58.514286 58.514286s58.514286-24.380952 58.514286-58.514286c0-238.933333-195.047619-433.980952-433.980953-433.980952z" p-id="5735" fill="#ffffff"></path></svg>