<?xml version="1.0" standalone="no"?><!DOCTYPE svg PUBLIC "-//W3C//DTD SVG 1.1//EN" "http://www.w3.org/Graphics/SVG/1.1/DTD/svg11.dtd"><svg t="1547087504507" class="icon" style="" viewBox="0 0 1024 1024" version="1.1" xmlns="http://www.w3.org/2000/svg" p-id="3084" xmlns:xlink="http://www.w3.org/1999/xlink" width="200" height="200"><defs><style type="text/css"></style></defs><path d="M832 384H192c-70.4 0-128 57.6-128 128v384c0 70.4 57.6 128 128 128h640c70.4 0 128-57.6 128-128V512c0-70.4-57.6-128-128-128z m64 512c0 35.2-28.8 64-64 64H192c-35.2 0-64-28.8-64-64V512c0-35.2 28.8-64 64-64h640c35.2 0 64 28.8 64 64v384z" fill="#707070" p-id="3085"></path><path d="M512 0c-140.8 0-256 115.2-256 256v192h512V256c0-140.8-115.2-256-256-256z m192 384H320V256c0-105.6 86.4-192 192-192s192 86.4 192 192v128zM576 672c0-35.2-28.8-64-64-64s-64 28.8-64 64c0 22.4 12.8 44.8 32 54.4V768c0 19.2 12.8 32 32 32s32-12.8 32-32v-41.6c19.2-9.6 32-32 32-54.4z" fill="#707070" p-id="3086"></path></svg>