<?xml version="1.0" standalone="no"?><!DOCTYPE svg PUBLIC "-//W3C//DTD SVG 1.1//EN" "http://www.w3.org/Graphics/SVG/1.1/DTD/svg11.dtd"><svg t="1555393956336" class="icon" style="" viewBox="0 0 1024 1024" version="1.1" xmlns="http://www.w3.org/2000/svg" p-id="1971" xmlns:xlink="http://www.w3.org/1999/xlink" width="200" height="200"><defs><style type="text/css"></style></defs><path d="M615.6 266.7h-427l128.2-128.3c10.2-10.2 14.2-25.1 10.5-39.1-3.7-14-14.7-24.9-28.6-28.6-14-3.7-28.9 0.3-39.1 10.5L87.5 253.4c-15.1 15-23.4 35.2-23.5 56.7-0.2 21.5 8.3 42.1 23.5 57.3l172.2 172.2c7.6 7.6 17.9 11.9 28.6 11.9s21-4.3 28.6-11.9c7.6-7.6 11.9-17.9 11.9-28.6 0-10.7-4.3-21-11.9-28.6l-135-134.7h433.8c145.3 0 263.5 118 263.5 263.1S760.9 873.7 615.6 873.7H333.1c-22.3 0-40.5 18.1-40.5 40.5 0 22.3 18.1 40.5 40.5 40.5h282.5c189.9 0 344.4-154.3 344.4-344s-154.5-344.1-344.4-344" p-id="1972"></path></svg>