<?xml version="1.0" standalone="no"?><!DOCTYPE svg PUBLIC "-//W3C//DTD SVG 1.1//EN" "http://www.w3.org/Graphics/SVG/1.1/DTD/svg11.dtd"><svg t="1555571421338" class="icon" style="" viewBox="0 0 1024 1024" version="1.1" xmlns="http://www.w3.org/2000/svg" p-id="1996" xmlns:xlink="http://www.w3.org/1999/xlink" width="200" height="200"><defs><style type="text/css"></style></defs><path d="M5.4272 934.0928a84.48 84.48 0 0 0 84.48 84.48h844.8a84.48 84.48 0 0 0 84.48-84.48V701.44a84.48 84.48 0 0 0-84.48-84.48h-253.44V395.52a52.7872 52.7872 0 1 0-105.5744 0v221.7472H89.9072A84.48 84.48 0 0 0 5.4272 701.44z m105.5744-116.1728a52.8384 52.8384 0 1 1 15.36 37.2736 52.7872 52.7872 0 0 1-15.36-37.2736z m190.1056 0a52.8384 52.8384 0 1 1 15.36 37.2736 52.7872 52.7872 0 0 1-15.36-37.2736z m327.3728-644.1472a221.696 221.696 0 0 0-221.7472 221.7472 52.7872 52.7872 0 1 0 105.5744 0 116.1728 116.1728 0 0 1 232.2944 0 52.7872 52.7872 0 1 0 105.5744 0 221.7472 221.7472 0 0 0-221.7472-221.7472z m0-168.96a390.656 390.656 0 0 0-390.7584 390.7072 52.7872 52.7872 0 1 0 105.6256 0 285.1328 285.1328 0 1 1 570.2144 0 52.7872 52.7872 0 1 0 105.5744 0A390.6048 390.6048 0 0 0 628.48 4.8128z m0 0" fill="" p-id="1997"></path></svg>